#!OML:ASF X:\für Bonn\!DataBase\2005_08_10_Bjorn_Final\c3d\bjorn.ASF
:FULLY-SPECIFIED
:DEGREES
710
root -1.3252 1.46198 21.3964 -443.419 -173.649 9.22248
lowerback -8.03347 -0.61031 -7.02907
upperback 1.75813 -0.00974572 -4.96767
thorax 6.37749 -0.264826 -1.29084
lowerneck -14.8767 -5.59741 -0.610738
upperneck 2.29637 -8.09475 5.2118
head 3.67299 -3.93669 1.19746
rclavicle 4.45278e-014 2.01766e-014
rhumerus -213.652 -177.03 127.063
rradius 12.0617
rwrist 41.1357
rhand -15.0986 13.4049
rfingers 7.12502
rthumb 11.0696 -16.2832
lclavicle 4.45278e-014 2.01766e-014
lhumerus -388.143 -42.943 -301.646
lradius 19.2295
lwrist -39.6768
lhand -24.9511 -16.4649
lfingers 7.12502
lthumb 1.55877 13.5092
rfemur -196.74 -154.766 186.703
rtibia 31.7861
rfoot 5.99327 -10.0414
rtoes 14.2924
lfemur -15.0185 3.00732 -23.7276
ltibia 22.0832
lfoot 14.277 -4.22429
ltoes -10.4005
711
root -1.3249 1.4621 21.3965 -443.426 -173.649 9.19114
lowerback -8.03712 -0.611457 -7.04619
upperback 1.75217 -0.00983566 -4.96266
thorax 6.37329 -0.265423 -1.27596
lowerneck -14.7714 -5.58785 -0.612917
upperneck 2.18507 -8.07769 5.21575
head 3.61272 -3.93264 1.20481
rclavicle -1.43125e-014 7.09661e-014
rhumerus -213.652 -173.379 129.335
rradius 11.1622
rwrist 45.6763
rhand -14.9944 13.3183
rfingers 7.12502
rthumb 11.1701 -16.3643
lclavicle -1.43125e-014 7.09661e-014
lhumerus -387.864 -42.3118 -302.105
lradius 18.6337
lwrist -40.0787
lhand -25.0448 -16.0961
lfingers 7.12502
lthumb 1.46826 13.8786
rfemur -196.723 -154.78 186.693
rtibia 31.7764
rfoot 5.89658 -10.1571
rtoes 14.0948
lfemur -14.9979 3.0456 -23.7098
ltibia 22.086
lfoot 14.1981 -4.02514
ltoes -10.4639
712
root -1.3254 1.4619 21.3958 -443.448 -173.668 9.18558
lowerback -8.02 -0.612253 -7.01279
upperback 1.75238 -0.0156559 -4.97384
thorax 6.36372 -0.266639 -1.30677
lowerneck -14.6955 -5.57686 -0.630107
upperneck 2.10522 -8.06376 5.27472
head 3.57349 -3.92749 1.23159
rclavicle 1.59028e-015 -2.22639e-014
rhumerus -213.891 -169.07 132.032
rradius 10.314
rwrist 51.0135
rhand -14.9365 13.2755
rfingers 7.12502
rthumb 11.226 -16.4041
lclavicle 1.59028e-015 -2.22639e-014
lhumerus -387.552 -41.7157 -302.626
lradius 18.0342
lwrist -40.4005
lhand -25.1393 -15.7946
lfingers 7.12502
lthumb 1.37707 14.1807
rfemur -196.683 -154.764 186.69
rtibia 31.7612
rfoot 5.81992 -10.2542
rtoes 13.9567
lfemur -14.9609 3.01498 -23.6672
ltibia 22.0936
lfoot 14.073 -3.73968
ltoes -10.4047
713
root -1.32437 1.46153 21.3952 -443.47 -173.685 9.17691
lowerback -8.00481 -0.62128 -7.02604
upperback 1.7573 -0.027093 -4.95592
thorax 6.3607 -0.272468 -1.2818
lowerneck -14.5949 -5.55888 -0.616419
upperneck 1.97896 -8.03623 5.26143
head 3.50694 -3.91904 1.23128
rclavicle 2.70347e-014 -3.78685e-014
rhumerus -214.74 -162.649 136.345
rradius 9.51715
rwrist 58.8474
rhand -14.9466 13.5462
rfingers 7.12502
rthumb 11.2162 -16.134
lclavicle 2.70347e-014 -3.78685e-014
lhumerus -387.256 -41.0483 -303.109
lradius 17.4496
lwrist -40.6559
lhand -25.2251 -15.4385
lfingers 7.12502
lthumb 1.29413 14.5373
rfemur -196.64 -154.788 186.695
rtibia 31.7466
rfoot 5.68398 -10.3872
rtoes 13.8002
lfemur -14.9286 3.03786 -23.6201
ltibia 22.1005
lfoot 13.9796 -3.46783
ltoes -10.2686
714
root -1.32423 1.46189 21.3955 -443.481 -173.705 9.14426
lowerback -8.01478 -0.617466 -7.01699
upperback 1.76662 -0.021069 -4.94951
thorax 6.37612 -0.2696 -1.27966
lowerneck -14.5424 -5.54616 -0.645369
upperneck 1.89547 -8.01557 5.30366
head 3.47052 -3.91076 1.25444
rclavicle -2.22639e-014 6.43068e-014
rhumerus -216.152 -156.275 140.914
rradius 8.80851
rwrist 66.679
rhand -15.1169 13.7219
rfingers 7.12502
rthumb 11.052 -15.9672
lclavicle -2.22639e-014 6.43068e-014
lhumerus -386.887 -40.305 -303.676
lradius 16.8521
lwrist -40.9319
lhand -25.2982 -15.1691
lfingers 7.12502
lthumb 1.22361 14.8071
rfemur -196.608 -154.819 186.698
rtibia 31.7294
rfoot 5.55683 -10.4943
rtoes 13.6838
lfemur -14.8966 2.99764 -23.5763
ltibia 22.1058
lfoot 13.8342 -3.18875
ltoes -10.4659
715
root -1.32414 1.46149 21.3949 -443.501 -173.723 9.11804
lowerback -7.99879 -0.614992 -7.00141
upperback 1.75952 -0.0215937 -4.95086
thorax 6.35929 -0.268785 -1.28929
lowerneck -14.4262 -5.54412 -0.673395
upperneck 1.79958 -8.00802 5.34442
head 3.41781 -3.9102 1.27773
rclavicle -9.54166e-015 3.68746e-014
rhumerus -218.245 -150.045 145.905
rradius 8.20089
rwrist 74.4829
rhand -15.3509 13.7165
rfingers 7.12502
rthumb 10.8263 -15.9845
lclavicle -9.54166e-015 3.68746e-014
lhumerus -386.492 -39.3941 -304.315
lradius 16.2384
lwrist -41.3621
lhand -25.3486 -14.9388
lfingers 7.12502
lthumb 1.1749 15.0377
rfemur -196.575 -154.825 186.702
rtibia 31.7184
rfoot 5.44737 -10.5904
rtoes 13.4504
lfemur -14.862 3.05261 -23.5378
ltibia 22.107
lfoot 13.7309 -2.94918
ltoes -10.4544
716
root -1.32396 1.46194 21.3941 -443.521 -173.745 9.09809
lowerback -7.98624 -0.614403 -6.99255
upperback 1.75622 -0.0231386 -4.9421
thorax 6.34856 -0.268814 -1.28476
lowerneck -14.345 -5.53339 -0.686562
upperneck 1.72178 -7.98958 5.36084
head 3.37582 -3.90377 1.29004
rclavicle 6.52014e-014 -7.21588e-014
rhumerus -221.149 -144.004 151.534
rradius 7.76228
rwrist 82.1911
rhand -15.4753 13.6184
rfingers 7.12502
rthumb 10.7063 -16.0888
lclavicle 6.52014e-014 -7.21588e-014
lhumerus -386.063 -38.361 -304.988
lradius 15.6324
lwrist -41.8453
lhand -25.344 -14.7364
lfingers 7.12502
lthumb 1.1793 15.24
rfemur -196.532 -154.844 186.702
rtibia 31.7022
rfoot 5.326 -10.7184
rtoes 13.45
lfemur -14.8241 3.01547 -23.4919
ltibia 22.1149
lfoot 13.5855 -2.63474
ltoes -10.5508
717
root -1.32366 1.46156 21.3932 -443.551 -173.744 9.07753
lowerback -7.97515 -0.620142 -7.01798
upperback 1.77408 -0.0278514 -4.92992
thorax 6.36156 -0.272532 -1.25869
lowerneck -14.2766 -5.52241 -0.716536
upperneck 1.611 -7.9686 5.3886
head 3.32613 -3.89672 1.30924
rclavicle 5.56597e-014 -1.82882e-014
rhumerus -225.02 -138.188 157.98
rradius 7.46455
rwrist 89.7901
rhand -15.489 13.3478
rfingers 7.12502
rthumb 10.6931 -16.3601
lclavicle 5.56597e-014 -1.82882e-014
lhumerus -385.499 -36.9193 -305.831
lradius 15.0023
lwrist -42.7135
lhand -25.2852 -14.6018
lfingers 7.12502
lthumb 1.23616 15.3744
rfemur -196.489 -154.849 186.681
rtibia 31.6941
rfoot 5.23793 -10.8162
rtoes 13.2084
lfemur -14.7748 3.01539 -23.4653
ltibia 22.1177
lfoot 13.4794 -2.30936
ltoes -10.312
718
root -1.32401 1.46118 21.3933 -443.57 -173.763 9.06017
lowerback -7.96385 -0.617828 -7.02164
upperback 1.77897 -0.0252148 -4.91359
thorax 6.36021 -0.271357 -1.23891
lowerneck -14.2201 -5.51379 -0.710262
upperneck 1.53776 -7.95487 5.38091
head 3.28839 -3.8929 1.30902
rclavicle -2.8625e-014 2.78299e-014
rhumerus -230.297 -132.836 165.724
rradius 7.34938
rwrist 97.3265
rhand -15.4702 13.1237
rfingers 7.12502
rthumb 10.7112 -16.5833
lclavicle -2.8625e-014 2.78299e-014
lhumerus -384.974 -35.5511 -306.652
lradius 14.4262
lwrist -43.497
lhand -25.1283 -14.4419
lfingers 7.12502
lthumb 1.38768 15.5334
rfemur -196.455 -154.838 186.684
rtibia 31.6837
rfoot 5.14791 -10.911
rtoes 13.1719
lfemur -14.7383 2.95794 -23.4227
ltibia 22.1199
lfoot 13.3512 -1.97193
ltoes -10.38
719
root -1.32388 1.46127 21.3926 -443.583 -173.781 9.03074
lowerback -7.96716 -0.614503 -7.01481
upperback 1.78398 -0.0207129 -4.90719
thorax 6.36727 -0.269092 -1.23551
lowerneck -14.1757 -5.50448 -0.73982
upperneck 1.47025 -7.93862 5.4184
head 3.2593 -3.88637 1.3298
rclavicle 3.18055e-015 1.44119e-014
rhumerus -237.207 -128.047 174.968
rradius 7.39675
rwrist 104.737
rhand -15.3166 12.8894
rfingers 7.12502
rthumb 10.8594 -16.8098
lclavicle 3.18055e-015 1.44119e-014
lhumerus -383.795 -32.273 -308.166
lradius 13.3303
lwrist -46.2545
lhand -25.0269 -14.4256
lfingers 7.12502
lthumb 1.48562 15.549
rfemur -196.43 -154.834 186.69
rtibia 31.677
rfoot 5.08921 -10.9757
rtoes 12.9963
lfemur -14.7002 2.99223 -23.3827
ltibia 22.1189
lfoot 13.2244 -1.65307
ltoes -10.1846
720
root -1.32463 1.46128 21.392 -443.593 -173.782 9.02049
lowerback -7.9751 -0.624922 -7.02818
upperback 1.79326 -0.0311197 -4.89393
thorax 6.38216 -0.274876 -1.21584
lowerneck -14.1319 -5.49872 -0.753847
upperneck 1.40094 -7.92586 5.41785
head 3.2269 -3.88255 1.33502
rclavicle 3.18055e-015 -5.17834e-014
rhumerus -246.108 -124.073 186.142
rradius 7.59162
rwrist 111.969
rhand -15.1012 12.6848
rfingers 7.12502
rthumb 11.0671 -17.0034
lclavicle 3.18055e-015 -5.17834e-014
lhumerus -382.707 -28.4847 -309.754
lradius 12.3785
lwrist -49.5396
lhand -24.8117 -14.3655
lfingers 7.12502
lthumb 1.69343 15.6075
rfemur -196.407 -154.865 186.677
rtibia 31.6675
rfoot 4.97867 -11.0922
rtoes 12.9182
lfemur -14.6711 2.94422 -23.3624
ltibia 22.1185
lfoot 13.0914 -1.29329
ltoes -10.0214
721
root -1.3245 1.46079 21.391 -443.619 -173.785 8.98923
lowerback -7.96671 -0.618049 -7.05295
upperback 1.81045 -0.019566 -4.88287
thorax 6.39544 -0.270928 -1.18918
lowerneck -14.0922 -5.49113 -0.760868
upperneck 1.33184 -7.91413 5.43329
head 3.19598 -3.8789 1.34407
rclavicle 6.83819e-014 -8.5875e-014
rhumerus -257.195 -121.304 199.467
rradius 7.90983
rwrist 119.099
rhand -14.9501 12.6061
rfingers 7.12502
rthumb 11.2129 -17.0742
lclavicle 6.83819e-014 -8.5875e-014
lhumerus -381.64 -24.3191 -311.412
lradius 11.4642
lwrist -53.2543
lhand -24.5075 -14.2995
lfingers 7.12502
lthumb 1.98725 15.671
rfemur -196.363 -154.898 186.652
rtibia 31.6572
rfoot 4.89762 -11.1555
rtoes 13.0189
lfemur -14.6202 2.87846 -23.3375
ltibia 22.1181
lfoot 12.9361 -0.886329
ltoes -9.93186
722
root -1.3246 1.46052 21.3908 -443.633 -173.8 8.98271
lowerback -7.96281 -0.62783 -7.0552
upperback 1.81381 -0.0318738 -4.86778
thorax 6.39722 -0.276787 -1.1736
lowerneck -14.0288 -5.48002 -0.763908
upperneck 1.25621 -7.8942 5.41914
head 3.15619 -3.87215 1.34401
rclavicle 1.59028e-014 -1.03368e-014
rhumerus -269.841 -120.039 214.321
rradius 8.29793
rwrist 125.998
rhand -14.7877 12.565
rfingers 7.12502
rthumb 11.3695 -17.1068
lclavicle 1.59028e-014 -1.03368e-014
lhumerus -380.76 -19.5895 -313.126
lradius 10.708
lwrist -57.4842
lhand -24.1101 -14.1758
lfingers 7.12502
lthumb 2.37107 15.7907
rfemur -196.333 -154.972 186.659
rtibia 31.6464
rfoot 4.75523 -11.2957
rtoes 13.1377
lfemur -14.593 2.93208 -23.3018
ltibia 22.1159
lfoot 12.8525 -0.615586
ltoes -9.66248
723
root -1.32548 1.46043 21.391 -443.645 -173.819 8.96097
lowerback -7.96388 -0.630579 -7.05597
upperback 1.81718 -0.0347122 -4.8447
thorax 6.40152 -0.278102 -1.14919
lowerneck -13.9625 -5.46754 -0.807061
upperneck 1.1797 -7.86808 5.44023
head 3.11941 -3.86132 1.36313
rclavicle -7.95139e-015 6.81831e-014
rhumerus -282.918 -120.459 229.568
rradius 8.81658
rwrist 132.678
rhand -14.6753 12.6406
rfingers 7.12502
rthumb 11.4779 -17.0252
lclavicle -7.95139e-015 6.81831e-014
lhumerus -380.017 -14.54 -314.842
lradius 10.0534
lwrist -62.0377
lhand -23.6114 -13.9734
lfingers 7.12502
lthumb 2.85262 15.9873
rfemur -196.307 -154.936 186.662
rtibia 31.6347
rfoot 4.71972 -11.3257
rtoes 13.2797
lfemur -14.5604 2.87744 -23.2616
ltibia 22.1173
lfoot 12.7169 -0.222163
ltoes -9.5845
